<?xml version="1.0" encoding="UTF-8" standalone="no"?>
<svg width="128px" height="147px" viewBox="0 0 128 147" version="1.1" xmlns="http://www.w3.org/2000/svg" xmlns:xlink="http://www.w3.org/1999/xlink">
    <!-- Generator: Sketch 39.1 (31720) - http://www.bohemiancoding.com/sketch -->
    <title>Sydney</title>
    <desc>Created with Sketch.</desc>
    <defs>
        <polygon id="path-1" points="13 7 11.9532965 19.1568627 1.04670349 19.1568627 0 7"></polygon>
        <mask id="mask-2" maskContentUnits="userSpaceOnUse" maskUnits="objectBoundingBox" x="0" y="0" width="13" height="12.1568627" fill="white">
            <use xlink:href="#path-1"></use>
        </mask>
        <polyline id="path-3" points="3 6.07843137 3.63718049 0 8.86281951 0 9.5 6.07843137"></polyline>
        <mask id="mask-4" maskContentUnits="userSpaceOnUse" maskUnits="objectBoundingBox" x="0" y="0" width="6.5" height="6.07843137" fill="white">
            <use xlink:href="#path-3"></use>
        </mask>
    </defs>
    <g id="Page-1" stroke="none" stroke-width="1" fill="none" fill-rule="evenodd">
        <g id="Sydney">
            <g id="Sydney-Complete" transform="translate(1.000000, 2.000000)">
                <g id="Background">
                    <polygon id="Shape" fill="#F9D729" points="2.941 108.284 62.68 142.921 123.361 108.758 123.831 39.009 63.15 2 2 39.009"></polygon>
                    <rect id="Rectangle-Copy" stroke="#008751" x="98.0185185" y="83.1282051" width="3.7962963" height="3.76923077" rx="1.88461538"></rect>
                    <path d="M120.94,105.63 L62.668,139.245 L4.462,105.63 L4.364,38.369 L62.668,4.755 L120.908,38.369 L120.836,69.476 L120.908,69.476 L120.908,69.639 L120.836,69.52 L120.94,105.63 L120.94,105.63 Z M63.775,0.293 C63.091,-0.098 62.244,-0.098 61.56,0.293 L1.107,35.177 C0.423,35.568 0,36.317 0,37.099 L0,106.901 C0,107.682 0.423,108.432 1.107,108.822 L61.56,143.707 C61.919,143.902 62.277,144 62.668,144 C63.059,144 63.449,143.902 63.775,143.707 L124.23,108.822 C124.914,108.432 125.337,107.682 125.337,106.901 L125.337,37.099 C125.337,36.317 124.914,35.568 124.23,35.177 L63.775,0.293 Z" id="Shape" fill="#008751"></path>
                </g>
                <g id="Footer" transform="translate(35.000000, 94.000000)" fill="#008751">
                    <path d="M52.52,23.487 C52.357,23.193 51.966,23.096 51.706,23.259 L30.111,35.734 L39.296,24.008 C39.491,23.747 39.459,23.356 39.198,23.161 C38.938,22.965 38.547,22.998 38.351,23.259 L28.319,36.06 L28.319,22.338 C28.319,22.012 28.059,21.719 27.7,21.719 C27.342,21.719 27.081,21.979 27.081,22.338 L27.081,36.06 L17.049,23.259 C16.854,22.998 16.463,22.965 16.202,23.161 C15.942,23.356 15.909,23.747 16.105,24.008 L25.29,35.734 L3.271,23.031 C2.978,22.868 2.62,22.965 2.457,23.259 C2.294,23.552 2.392,23.91 2.685,24.073 L27.407,38.339 L27.44,38.339 C27.472,38.339 27.472,38.372 27.505,38.372 L27.603,38.372 C27.635,38.372 27.7,38.404 27.733,38.404 C27.798,38.404 27.831,38.404 27.863,38.372 L27.928,38.372 C27.961,38.372 27.961,38.339 27.993,38.339 L28.026,38.339 L52.357,24.301 C52.585,24.171 52.683,23.78 52.52,23.487 L52.52,23.487 Z" id="Shape"></path>
                    <path d="M54.149,21.597 C54.562,21.597 54.898,21.933 54.898,22.347 C54.898,22.76 54.562,23.096 54.149,23.096 C53.735,23.096 53.399,22.76 53.399,22.347 C53.399,21.933 53.735,21.597 54.149,21.597 L54.149,21.597 Z" id="Shape"></path>
                    <path d="M0.894,21.597 C1.307,21.597 1.643,21.933 1.643,22.347 C1.643,22.76 1.307,23.096 0.894,23.096 C0.48,23.096 0.145,22.76 0.145,22.347 C0.145,21.933 0.48,21.597 0.894,21.597 L0.894,21.597 Z" id="Shape"></path>
                    <g id="SYD" transform="translate(27.225888, 19.431912) rotate(38.103514) translate(-27.225888, -19.431912) translate(11.725888, 7.431912)" font-size="6.07000017" font-family="Helvetica-Bold, Helvetica" font-weight="bold">
                        <text id="D">
                            <tspan x="25.1515263" y="6.04942979">D</tspan>
                        </text>
                        <text id="Y" transform="translate(15.034843, 9.906944) rotate(-39.000000) translate(-15.034843, -9.906944) ">
                            <tspan x="12.5348426" y="12.4069438">Y</tspan>
                        </text>
                        <text id="S" transform="translate(4.934884, 20.075019) rotate(-69.000000) translate(-4.934884, -20.075019) ">
                            <tspan x="2.43488443" y="22.5750186">S</tspan>
                        </text>
                    </g>
                </g>
                <g id="Header" transform="translate(37.000000, 11.000000)" fill="#008751">
                    <path d="M50.683,14.34 L25.961,0.074 C25.928,0.041 25.896,0.041 25.863,0.041 L25.831,0.041 L25.798,0.041 L25.7,0.041 L25.668,0.041 L25.635,0.041 L25.505,0.041 C25.472,0.041 25.44,0.074 25.407,0.074 L1.076,14.112 C0.783,14.275 0.685,14.633 0.848,14.927 C1.011,15.22 1.402,15.317 1.662,15.155 L23.29,2.68 L14.105,14.405 C13.909,14.666 13.942,15.057 14.202,15.252 C14.463,15.448 14.854,15.415 15.049,15.155 L25.081,2.354 L25.081,14.861 C25.081,15.187 25.342,15.48 25.7,15.48 C26.059,15.48 26.319,15.22 26.319,14.861 L26.319,2.354 L36.351,15.155 C36.482,15.317 36.644,15.383 36.84,15.383 C36.97,15.383 37.1,15.35 37.198,15.252 C37.459,15.057 37.491,14.666 37.296,14.405 L28.111,2.68 L50.129,15.383 C50.227,15.448 50.325,15.448 50.422,15.448 C50.618,15.448 50.846,15.35 50.943,15.155 C51.074,14.894 50.976,14.503 50.683,14.34 L50.683,14.34 Z" id="Shape"></path>
                </g>
                <g id="Wave" transform="translate(41.000000, 100.000000)" stroke="#008751" stroke-width="1.4">
                    <path d="M0.45,0 C0.879,1.072 1.927,1.83 3.152,1.83" id="Shape-Copy-2" transform="translate(1.801000, 0.915000) scale(-1, 1) translate(-1.801000, -0.915000) "></path>
                    <path d="M70,0 C70.429,1.072 71.477,1.83 72.702,1.83" id="Shape-Copy-9"></path>
                    <path d="M42,0 C42.418,1.096 43.478,1.875 44.721,1.875 C45.946,1.875 46.994,1.117 47.424,0.045" id="Shape-Copy-3"></path>
                    <path d="M48,0 C48.418,1.096 49.478,1.875 50.721,1.875 C51.946,1.875 52.994,1.117 53.424,0.045" id="Shape-Copy-4"></path>
                    <path d="M53.424,0 C53.842,1.096 54.902,1.875 56.145,1.875 C57.37,1.875 58.418,1.117 58.848,0.045" id="Shape-Copy-5"></path>
                    <path d="M59,0 C59.418,1.096 60.478,1.875 61.721,1.875 C62.946,1.875 63.994,1.117 64.424,0.045" id="Shape-Copy-6"></path>
                    <path d="M64.424,0 C64.842,1.096 65.902,1.875 67.145,1.875 C68.37,1.875 69.418,1.117 69.848,0.045" id="Shape-Copy-7"></path>
                    <path d="M3.152,0 C3.57,1.096 4.63,1.875 5.873,1.875 C7.098,1.875 8.146,1.117 8.576,0.045" id="Shape-Copy-3"></path>
                    <path d="M14,0 C14.418,1.096 15.478,1.875 16.721,1.875 C17.946,1.875 18.994,1.117 19.424,0.045" id="Shape-Copy-4"></path>
                    <path d="M8.576,0 C8.994,1.096 10.054,1.875 11.297,1.875 C12.522,1.875 13.57,1.117 14,0.045" id="Shape-Copy-11"></path>
                    <path d="M19.424,0 C19.842,1.096 20.902,1.875 22.145,1.875 C23.37,1.875 24.418,1.117 24.848,0.045" id="Shape-Copy-5"></path>
                    <path d="M25,0 C25.418,1.096 26.478,1.875 27.721,1.875 C28.946,1.875 29.994,1.117 30.424,0.045" id="Shape-Copy-6"></path>
                    <path d="M30.424,0 C30.842,1.096 31.902,1.875 33.145,1.875 C34.37,1.875 35.418,1.117 35.848,0.045" id="Shape-Copy-7"></path>
                    <path d="M35.848,0 C36.266,1.096 37.326,1.875 38.569,1.875 C39.794,1.875 40.842,1.117 41.272,0.045" id="Shape-Copy-8"></path>
                </g>
                <g id="Birds" transform="translate(10.000000, 34.000000)" stroke="#008751" stroke-width="1.6">
                    <path d="M6.919,9 C5.351,9 4.009,9.97 3.459,11.342 C2.91,9.97 1.569,9 0,9" id="Shape"></path>
                    <path d="M33.919,0 C32.351,0 31.009,0.97 30.459,2.342 C29.91,0.97 28.569,0 27,0" id="Shape-Copy"></path>
                </g>
                <g id="Centerpoint" transform="translate(21.000000, 40.000000)" stroke="#008751">
                    <use id="Rectangle-2-Copy" mask="url(#mask-2)" stroke-width="3.2" xlink:href="#path-1"></use>
                    <use id="Rectangle-3-Copy" mask="url(#mask-4)" stroke-width="3.2" xlink:href="#path-3"></use>
                    <path d="M6.7,20 L6.7,32.5016003" id="Path-2-Copy" stroke-width="1.4"></path>
                </g>
            </g>
            <path d="M32,82.9999999 C43,61.0000001 76,45.0000003 103,79.0000008" id="Path-3" stroke="#008751" stroke-width="1.6"></path>
            <path d="M40.4991,84.8 L90.5009247,84.8" id="Path-6" stroke="#008751" stroke-width="1.6"></path>
            <polyline id="Path-7" stroke="#008751" stroke-width="1.6" points="67.5462963 63 67.5462963 74.2211091 67.5462963 82.5320652"></polyline>
            <polyline id="Path-7-Copy" stroke="#008751" stroke-width="1.6" points="77.037037 65.0512821 77.037037 75.0939361 77.037037 82.5320652"></polyline>
            <polyline id="Path-7-Copy-3" stroke="#008751" stroke-width="1.6" points="86.5277778 68.1923077 86.5277778 76.4304526 86.5277778 82.5320652"></polyline>
            <polyline id="Path-7-Copy-2" stroke="#008751" stroke-width="1.6" points="58.0555556 65.0512821 58.0555556 75.0939361 58.0555556 82.5320652"></polyline>
            <polyline id="Path-7-Copy-4" stroke="#008751" stroke-width="1.6" points="48.5648148 68.1923077 48.5648148 76.4304526 48.5648148 82.5320652"></polyline>
            <g id="Group" transform="translate(85.000000, 64.000000)" stroke-width="1.6" stroke="#008751">
                <polyline id="Path-4" points="29.1910868 22.7582006 26.0602545 12.4198092 21.5224941 12.4198092 19.804151 17.9325546 8.49088514 17.9325546 10.6167927 23.7189128 5.81836126 28.2749336"></polyline>
                <path d="M28.9999998,31.6365059 L16.9847337,31.6365059 L15.1848295,28.2488607 L0.386559331,28.2488607 C-1.13108837,32.6137821 4.78332369,38.4596479 4.78332369,38.4596479" id="Path-5"></path>
                <path d="M23.937659,9.8488613 C22.365446,4.91340203 30.2802668,2.81774902 28.7851352,5.55111616 C27.2900035,8.2844833 24.1723013,0.476396609 31.6990891,0.854761368" id="Path-9"></path>
            </g>
            <path d="M13.5,85.5807667 C18.6593545,80.4931641 22.6712933,77.7447666 30.8607645,77 C27.67803,81.5839343 26.2982886,87.5193685 26.2982886,87.5193685 L36.5409975,86.8157051 L34.9703294,91.280624 L42.3226806,91.280624 L41.2919289,98.9239909 L45.8503732,98.9239909" id="Path-2" stroke="#008751" stroke-width="1.6"></path>
            <polyline id="Path-10" stroke="#008751" stroke-width="1.6" points="14 96 23.4866293 96 24.8537372 100.04787 37.8354791 100.04787 39.0988902 103.646642 14.16444 103.646642"></polyline>
            <g id="Asset-1" transform="translate(38.000000, 47.000000)" font-size="7" font-family="Helvetica-Bold, Helvetica" fill="#008751" font-weight="bold">
                <text id="N" transform="translate(5.033797, 11.593461) rotate(-29.920000) translate(-5.033797, -11.593461) ">
                    <tspan x="2.03379713" y="13.593461">N</tspan>
                </text>
                <text id="O" transform="translate(10.816481, 8.729544) rotate(-23.320000) translate(-10.816481, -8.729544) ">
                    <tspan x="7.31648066" y="10.729544">O</tspan>
                </text>
                <text id="D" transform="translate(16.395715, 6.732202) rotate(-16.480000) translate(-16.395715, -6.732202) ">
                    <tspan x="13.3957145" y="8.73220164">D</tspan>
                </text>
                <text id="E" transform="translate(22.220433, 5.406566) rotate(-9.720000) translate(-22.220433, -5.406566) ">
                    <tspan x="19.2204335" y="7.40656588">E</tspan>
                </text>
                <text id="S" transform="translate(27.710000, 4.823754) rotate(-2.862405) translate(-27.710000, -4.823754) ">
                    <tspan x="24.7062523" y="6.8237539">S</tspan>
                </text>
                <text id="C" transform="translate(33.255764, 4.967781) rotate(4.910000) translate(-33.255764, -4.967781) ">
                    <tspan x="30.2557636" y="6.96778133">C</tspan>
                </text>
                <text id="H" transform="translate(39.161490, 5.917397) rotate(13.090000) translate(-39.161490, -5.917397) ">
                    <tspan x="36.1614905" y="7.91739741">H</tspan>
                </text>
                <text id="O" transform="translate(45.375000, 7.900502) rotate(21.695109) translate(-45.375000, -7.900502) ">
                    <tspan x="41.8718514" y="9.90050202">O</tspan>
                </text>
                <text id="O" transform="translate(51.165000, 10.722780) rotate(29.886527) translate(-51.165000, -10.722780) ">
                    <tspan x="47.6529458" y="12.7227797">O</tspan>
                </text>
                <text id="L" transform="translate(55.675000, 13.684511) rotate(36.069410) translate(-55.675000, -13.684511) ">
                    <tspan x="53.1697555" y="15.684511">L</tspan>
                </text>
            </g>
            <g id="Group-3" transform="translate(104.544229, 45.727241) rotate(30.000000) translate(-104.544229, -45.727241) translate(95.544229, 36.227241)">
                <path d="M8.56534181,5.00439851 C6.15313197,4.89647666 4.11102652,6.78767873 4.00434937,9.22876837 C3.89767222,11.669858 5.76633659,13.7357907 8.17927212,13.8437126 C10.591482,13.9516344 12.6335874,12.0604323 12.7402646,9.62007687 C12.8469417,7.17898724 10.9782773,5.11305453 8.56534181,5.00439851 L8.56534181,5.00439851 Z" id="Shape-Copy-12" stroke="#008751" stroke-width="1.4"></path>
                <path d="M9.42724135,2.94049945 L9.42724135,-4.26325641e-14 L7.82724133,-4.26325641e-14 L7.82724133,2.87611385 C8.10036394,2.85319072 8.3779903,2.84749593 8.6589985,2.86006819 L8.6589985,2.86006819 C8.91962751,2.87180448 9.17598099,2.8989162 9.42724135,2.94049945 Z M3.20411576,5.44519654 L0.800000012,4.05717967 L-2.84217094e-14,5.44282033 L2.40406529,6.83080807 C2.61516848,6.33362803 2.88490557,5.86893038 3.20411576,5.44519654 Z M2.45708013,12.1385838 L-2.48689958e-14,13.5571797 L0.800000012,14.9428203 L3.28504478,13.5080791 C2.95651571,13.0894529 2.67768566,12.6298112 2.45708013,12.1385838 Z M7.82724133,15.9713599 L7.82724133,19 L9.42724135,19 L9.42724135,15.9085349 C8.99224243,15.9805243 8.54341679,16.0085248 8.08561543,15.9880429 C7.99900861,15.9841693 7.91287391,15.9785972 7.82724133,15.9713599 Z M13.6144169,13.3031076 L16.4544827,14.9428203 L17.2544827,13.5571797 L14.3882802,11.9023769 C14.1864894,12.4038429 13.9254916,12.8735723 13.6144169,13.3031076 Z M14.4363002,7.06989874 L17.2544827,5.44282033 L16.4544827,4.05717967 L13.6900514,5.65322478 C13.9931092,6.09006193 14.2446776,6.56540287 14.4363002,7.06989874 Z" id="Combined-Shape" fill="#008751"></path>
            </g>
        </g>
    </g>
</svg>